<?xml version="1.0" encoding="UTF-8" standalone="no"?>
<svg
   version="1.1"
   viewBox="-21 -21 750 150"
   id="svg1"
   width="750"
   height="150"
   sodipodi:docname="SW Logo Horiz.svg"
   inkscape:version="1.4.3 (0d15f750, 2025-12-25)"
   inkscape:export-filename="SW Logo Horiz.webp"
   inkscape:export-xdpi="96"
   inkscape:export-ydpi="96"
   xmlns:inkscape="http://www.inkscape.org/namespaces/inkscape"
   xmlns:sodipodi="http://sodipodi.sourceforge.net/DTD/sodipodi-0.dtd"
   xmlns="http://www.w3.org/2000/svg"
   xmlns:svg="http://www.w3.org/2000/svg">
  <sodipodi:namedview
     id="namedview1"
     pagecolor="#ffffff"
     bordercolor="#000000"
     borderopacity="0.25"
     inkscape:showpageshadow="2"
     inkscape:pageopacity="0.0"
     inkscape:pagecheckerboard="0"
     inkscape:deskcolor="#d1d1d1"
     inkscape:zoom="1.3583766"
     inkscape:cx="317.29051"
     inkscape:cy="145.76223"
     inkscape:window-width="1710"
     inkscape:window-height="713"
     inkscape:window-x="0"
     inkscape:window-y="39"
     inkscape:window-maximized="0"
     inkscape:current-layer="svg1" />
  <defs
     id="defs1" />
  <path
     fill="#000000"
     d="m 10.268483,66.799548 h 13.75 a 0.88,0.88 0 0 1 0.83,0.58 q 3.8,10.38 14.81,10.88 4.66,0.21 7.93,-0.64 c 3.95,-1.03 7.67,-4.19 7.48,-8.53 -0.69,-16.1 -42.17,-5.97 -43.23,-32.83 q -0.59,-15.07 13.68,-20.82 c 14.46,-5.8399996 36.4,-2.44 41.38,15.1 q 0.62,2.18 0.46,4.25 a 0.72,0.71 2.1 0 1 -0.72,0.66 h -12.76 a 0.68,0.67 81.1 0 1 -0.64,-0.47 q -2.75,-8.65 -11.62,-10.39 c -6.37,-1.26 -15.72,1.22 -15.54,9.32 0.14,6.04 5.78,8.59 10.89,9.83 q 7.4,1.8 15.98,4.27 c 4.84,1.39 11.57,4.83 14.16,9.42 q 2.19,3.88 2.64,8.53 c 0.97,10.15 -4.82,17.91 -14.04,21.26 q -15.48,5.63 -30.87,-0.12 c -8.24,-3.08 -15.4200004,-10.55 -15.1700004,-19.72 a 0.6,0.6 0 0 1 0.6000004,-0.58 z"
     data-svg-id="svg-elem-1772132684736-pxsbgb7tm"
     id="svg-elem-1772132563851-4guhpvqzw"
     stroke="#000000" />
  <rect
     fill="#000000"
     x="323.56158"
     y="-0.35476288"
     transform="rotate(2.5)"
     width="16.4"
     height="15.26"
     rx="6.98"
     data-svg-id="svg-elem-1772132684736-4vquc0a1l"
     id="svg-elem-1772132563851-iw872vp21"
     stroke="#000000" />
  <path
     fill="#000000"
     d="m 250.54848,68.879548 15.43,-53.26 a 0.83,0.82 7.8 0 1 0.8,-0.6 h 9.28 a 1.82,1.82 0 0 1 1.75,1.33 l 14.69,51.98 a 0.41,0.42 44.4 0 0 0.8,-0.01 l 14.21,-52.83 a 1.3,1.29 7.6 0 1 1.25,-0.95 h 10.8 a 0.82,0.82 0 0 1 0.79,1.03 l -19.16,71.23 a 1.03,1.03 0 0 1 -1,0.77 h -13.51 a 0.91,0.9 81.9 0 1 -0.87,-0.66 l -14.08,-49.79 a 0.27,0.26 45.7 0 0 -0.51,-0.01 l -14.54,50.18 a 0.73,0.72 7.9 0 1 -0.7,0.52 h -12.92 a 1.4,1.4 0 0 1 -1.35,-1.02 l -20.3,-71.81 a 0.56,0.56 0 0 1 0.54,-0.72 h 12.42 a 0.74,0.74 0 0 1 0.71,0.54 l 15.29,54.08 a 0.09,0.09 0 0 0 0.18,0 z"
     data-svg-id="svg-elem-1772132684736-hebi8hxbo"
     id="svg-elem-1772132563851-z9pnavtvj"
     stroke="#000000" />
  <path
     fill="#000000"
     d="m 105.37848,78.719548 v 9.49 a 0.67,0.67 0 0 1 -0.62,0.67 c -10.419997,0.85 -22.519997,1.49 -24.299997,-11.82 q -0.88,-6.59 -0.91,-12.2 -0.09,-17.61 -0.02,-18.88 a 0.65,0.66 1.3 0 0 -0.65,-0.69 h -7.29 a 0.96,0.96 0 0 1 -0.96,-0.96 v -7.78 a 0.76,0.76 0 0 1 0.76,-0.76 h 8.03 a 0.5,0.5 0 0 0 0.5,-0.46 l 1.16,-13.12 a 0.82,0.83 2.7 0 1 0.82,-0.75 h 9.88 a 0.31,0.32 0 0 1 0.31,0.32 v 13.44 a 0.58,0.57 0 0 0 0.58,0.57 h 12.259997 a 0.28,0.28 0 0 1 0.28,0.28 v 9.15 a 0.26,0.26 0 0 1 -0.26,0.26 H 92.708483 a 0.58,0.58 0 0 0 -0.58,0.58 q -0.17,19.05 0.16,25.29 0.09,1.82 1.43,4.4 c 1.74,3.34 6.869997,2.33 10.999997,2.3 a 0.66,0.67 0 0 1 0.66,0.67 z"
     data-svg-id="svg-elem-1772132684736-3ywvkgh4n"
     id="svg-elem-1772132563851-bc8xt3el7"
     stroke="#000000" />
  <path
     fill="#000000"
     d="m 122.86848,65.779548 q 0.85,9.43 8.82,12.37 c 5.7,2.11 11.53,0.19 15.14,-4.59 a 1.52,1.5 18.2 0 1 1.21,-0.6 h 10.78 a 0.42,0.42 0 0 1 0.4,0.54 q -3.38,11.81 -14.82,15.16 -9.05,2.66 -17.31,0.02 c -14.94,-4.77 -19.62,-17.63 -17.72,-32.19 q 0.78,-5.91 4.34,-11.24 9.47,-14.12 28.41,-10.64 c 14.26,2.62 18.45,17.48 17.58,29.89 a 0.63,0.64 1.9 0 1 -0.63,0.6 h -35.57 a 0.63,0.63 0 0 0 -0.63,0.68 z m 1.04,-9.69 22.58,0.04 a 0.16,0.16 0 0 0 0.16,-0.16 v -0.12 a 11.3,10.94 0.1 0 0 -11.28,-10.96 h -0.3 a 11.3,10.94 0.1 0 0 -11.32,10.92 v 0.12 a 0.16,0.16 0 0 0 0.16,0.16 z"
     data-svg-id="svg-elem-1772132684736-8rj4ht52a"
     id="svg-elem-1772132563851-ytf2g6rda"
     stroke="#000000" />
  <path
     fill="#000000"
     d="m 180.81848,41.689548 a 0.19,0.19 0 0 0 0.33,0.12 q 4.76,-5.82 11.71,-6.88 12.7,-1.95 20.76,5.8 c 7.51,7.23 9.48,17.13 8.25,27.44 -1.38,11.47 -8.91,19.85 -20.49,21.43 -6.99,0.96 -16.16,-2.13 -20.19,-8.12 a 0.21,0.21 0 0 0 -0.39,0.12 v 26.940002 a 0.56,0.56 0 0 1 -0.56,0.56 l -12.33,0.01 a 0.66,0.65 1.2 0 1 -0.66,-0.68 q 0.01,-0.24 0.01,-67.810002 0,-3.59 -0.42,-4.78 a 0.45,0.45 0 0 1 0.42,-0.6 h 12.94 a 0.62,0.62 0 0 1 0.62,0.62 z m 27.3012,16.5542 a 12.74,12.74 0 0 0 -12.9822,-12.4931 l -2.2796,0.0438 a 12.74,12.74 0 0 0 -12.4931,12.9822 l 0.1325,6.8987 a 12.74,12.74 0 0 0 12.9822,12.4931 l 2.2796,-0.0438 a 12.74,12.74 0 0 0 12.4931,-12.9822 z"
     data-svg-id="svg-elem-1772132684736-fx778emrp"
     id="svg-elem-1772132563851-psiqjxj6h"
     stroke="#000000" />
  <path
     fill="#000000"
     d="m 386.91848,51.219548 h -10.66 a 1.22,1.22 0 0 1 -1.12,-0.73 q -3.34,-7.74 -12.55,-5.56 c -3.79,0.89 -6.63,5.31 -2.9,8.11 q 2.12,1.58 5.87,2.37 8.29,1.74 11.46,2.55 13.25,3.37 11.95,17.69 -0.34,3.71 -2.05,6.04 c -5.01,6.82 -13.71,7.92 -22.28,7.54 -11.15,-0.49 -18.75,-5.52 -20.47,-17.23 a 0.41,0.4 86.3 0 1 0.4,-0.46 h 11.7 a 1.29,1.29 0 0 1 1.19,0.79 q 3.98,9.63 15.27,5.94 c 3.35,-1.09 6.39,-5.96 2.39,-8.49 q -1.87,-1.18 -3.46,-1.5 c -6.64,-1.36 -15.28,-2.6 -20.92,-6.87 -7.06,-5.35 -6.77,-18.51 0.83,-23.33 q 4.96,-3.15 9.13,-3.33 c 7.68,-0.33 13.94,-0.92 20.35,3.17 q 6.24,4 7.1,11.93 a 1.24,1.24 0 0 1 -1.23,1.37 z"
     data-svg-id="svg-elem-1772132684736-w0z9fk4sx"
     id="svg-elem-1772132563851-u7hmksq83"
     stroke="#000000" />
  <path
     fill="#000000"
     d="m 324.54848,35.809548 a 0.63,0.63 0 0 1 0.6,-0.83 h 12.71 a 0.49,0.49 0 0 1 0.49,0.49 v 51.8 a 0.54,0.55 0 0 1 -0.54,0.55 h -12.41 a 0.33,0.34 0 0 1 -0.33,-0.34 q 0.08,-31.51 -0.06,-49.06 -0.01,-1.29 -0.46,-2.61 z"
     data-svg-id="svg-elem-1772132684736-iyj9hf4bm"
     id="svg-elem-1772132563851-n4oeuv3d4"
     stroke="#000000" />
  <ellipse
     fill="#ff3518"
     cx="590.24054"
     cy="61.517521"
     rx="33.450001"
     ry="33.099998"
     data-svg-id="svg-elem-1772132684736-x46z421rf"
     id="svg-elem-1772132563851-g46l8wyxn" />
  <ellipse
     fill="#ff8b00"
     cx="511.14053"
     cy="61.507526"
     rx="33.700001"
     ry="33.029999"
     data-svg-id="svg-elem-1772132684736-jm0wv1v8o"
     id="svg-elem-1772132563851-ykbtq5z29" />
  <ellipse
     fill="#9c067a"
     cx="669.52057"
     cy="61.577534"
     rx="33.68"
     ry="33.029999"
     data-svg-id="svg-elem-1772132684736-9i5hr91y4"
     id="svg-elem-1772132563851-eonbokjqd" />
  <path
     fill="#000000"
     d="m 406.92901,66.806223 q 0.85,9.43 8.82,12.37 c 5.7,2.11 11.53,0.19 15.14,-4.59 a 1.52,1.5 18.2 0 1 1.21,-0.6 h 10.78 a 0.42,0.42 0 0 1 0.4,0.54 q -3.38,11.81 -14.82,15.16 -9.05,2.66 -17.31,0.02 c -14.94,-4.77 -19.62,-17.63 -17.72,-32.189999 q 0.78,-5.91 4.34,-11.24 9.47,-14.12 28.41,-10.64 c 14.26,2.62 18.45,17.48 17.58,29.889999 a 0.63,0.64 1.9 0 1 -0.63,0.6 h -35.57 a 0.63,0.63 0 0 0 -0.63,0.68 z m 1.04,-9.689999 22.58,0.04 a 0.16,0.16 0 0 0 0.16,-0.16 v -0.12 a 11.3,10.94 0.1 0 0 -11.28,-10.96 h -0.3 a 11.3,10.94 0.1 0 0 -11.32,10.92 v 0.12 a 0.16,0.16 0 0 0 0.16,0.16 z"
     data-svg-id="svg-elem-1772132684736-8rj4ht52a"
     id="svg-elem-1772132563851-ytf2g6rda-8"
     stroke="#000000" />
</svg>
